<svg xmlns="http://www.w3.org/2000/svg" viewBox="0 0 128.21 97.04"><g id="Layer_2" data-name="Layer 2"><g id="OBJECTS"><text transform="translate(10.36 45.44)" style="font-size:24.278860092163086px;fill:#f4b04e;font-family:Rye-Regular, Rye">BARBER</text><text transform="translate(28.46 71.58)" style="font-size:24.278860092163086px;fill:#f4b04e;font-family:Rye-Regular, Rye">SHOP</text><path d="M127.11,13.21H1.1A1.1,1.1,0,1,1,1.1,11h126a1.1,1.1,0,1,1,0,2.19Z" transform="translate(0 -0.78)" style="fill:#1d2744"/><path d="M53.05,90.35H1.1a1.1,1.1,0,1,1,0-2.2h52a1.1,1.1,0,1,1,0,2.2Z" transform="translate(0 -0.78)" style="fill:#1d2744"/><path d="M127.11,90.35H75.16a1.1,1.1,0,0,1,0-2.2h52a1.1,1.1,0,1,1,0,2.2Z" transform="translate(0 -0.78)" style="fill:#1d2744"/><path d="M70,93.77a2.11,2.11,0,0,0-2.7-.5.07.07,0,0,1-.06,0l-2.72-3-.62,1.54.82,0h0l1.87,2.09s0,0,0,.05a2.14,2.14,0,0,0-.1,2.34.06.06,0,0,1,0,0l-.72,1a.14.14,0,0,0,0,.16.14.14,0,0,0,.15.06h0L67,96.83a0,0,0,0,1,.05,0A2.13,2.13,0,0,0,70,93.77Zm-1.37,2.66a1.33,1.33,0,1,1,1-1.58A1.34,1.34,0,0,1,68.59,96.43Z" transform="translate(0 -0.78)" style="fill:#f4b04e"/><path d="M62.68,90.61l1.8-.38-5.39-6a.21.21,0,0,0-.17-.06.88.88,0,0,0-.12,1.16Z" transform="translate(0 -0.78)" style="fill:#f4b04e"/><path d="M68.48,84.39a.21.21,0,0,0-.17,0l-8.21,9a0,0,0,0,1-.06,0,2.13,2.13,0,0,0-2.8,3.1,0,0,0,0,1,0,0l-.15.16a.91.91,0,0,1-.87.27L55,96.73a.08.08,0,0,0-.09.06.72.72,0,0,0,.55.86l.55.12a1.68,1.68,0,0,0,1.63-.51l.15-.16s0,0,.05,0A2.14,2.14,0,0,0,60.71,94a0,0,0,0,1,0,0l1.9-2.07h0s1.14.08,1.14.07l4.81-6.41a.87.87,0,0,0-.11-1.16Zm-9.8,12.16a1.33,1.33,0,1,1,1.59-1A1.33,1.33,0,0,1,58.68,96.55Z" transform="translate(0 -0.78)" style="fill:#e0a04b"/><path d="M64.44,90.54h0v-.06h0a.13.13,0,0,0,0-.06v0s0,0,0-.06h0a.14.14,0,0,1,0-.06h0l0-.05h0l0-.06h0l0-.06h0l0,0h0l0,0h0l0,0h0l0,0h0l-.05,0h0l0,0h0l0,0h0l0,0h0l0,0h0l-.19,0a.76.76,0,0,0-.39.1h0a.81.81,0,0,0-.33.33h0a.76.76,0,0,0-.1.39A.84.84,0,0,0,63,91h0l0,0h0l0,0h0l0,0h0l0,0h0l0,0h0l.08,0h0l0,0h.09l.09,0h.2a.83.83,0,0,0,.39-.09h0a.92.92,0,0,0,.34-.34h0a.83.83,0,0,0,.09-.39Z" transform="translate(0 -0.78)" style="fill:#1d2744"/><path d="M64,90.54h0v0h0v0h0v0h0v0h0v0h0v0h0l0,0h0v0h0v0h0l0,0h0l0,0h-.22a.33.33,0,0,0-.17,0h0a.54.54,0,0,0-.15.15h0a.33.33,0,0,0,0,.17.34.34,0,0,0,.07.22h0v0h0l0,0h.18a.34.34,0,0,0,.17,0h0a.28.28,0,0,0,.15-.15h0a.33.33,0,0,0,0-.17Z" transform="translate(0 -0.78)" style="fill:#fce4a9"/><polygon points="109.83 57.54 111.12 61.52 115.31 61.52 111.92 63.98 113.21 67.96 109.83 65.5 106.44 67.96 107.74 63.98 104.35 61.52 108.53 61.52 109.83 57.54" style="fill:#1d2744"/><polygon points="18.38 57.54 19.68 61.52 23.86 61.52 20.48 63.98 21.77 67.96 18.38 65.5 15 67.96 16.29 63.98 12.9 61.52 17.09 61.52 18.38 57.54" style="fill:#1d2744"/><path d="M24.37,5.45V1h.73V2.87h2.25V1h.72V5.45h-.72v-2H25.1v2Z" transform="translate(0 -0.78)" style="fill:#f4b04e"/><path d="M29.93,5.45,31.66,1h.93l1.74,4.44h-.77l-.4-1h-2.1l-.39,1ZM31.3,3.81h1.62l-.49-1.3a.91.91,0,0,1-.06-.16c0-.07,0-.15-.08-.23l-.09-.25c0-.08-.05-.16-.07-.23h0l-.1.29c0,.11-.07.22-.11.33s-.07.18-.09.25Z" transform="translate(0 -0.78)" style="fill:#f4b04e"/><path d="M36.19,5.45V1h.73V5.45Z" transform="translate(0 -0.78)" style="fill:#f4b04e"/><path d="M39.26,5.45V1h2.33a1.61,1.61,0,0,1,.78.17,1.07,1.07,0,0,1,.47.47,1.57,1.57,0,0,1,.15.7,1.42,1.42,0,0,1-.2.78,1.15,1.15,0,0,1-.56.48l.92,1.84h-.79l-.84-1.71H40V5.45ZM40,3.13h1.55a.67.67,0,0,0,.54-.21.8.8,0,0,0,.19-.57A.8.8,0,0,0,42.18,2a.64.64,0,0,0-.25-.24.79.79,0,0,0-.4-.08H40Z" transform="translate(0 -0.78)" style="fill:#f4b04e"/><path d="M47.07,5.53a2.41,2.41,0,0,1-1.15-.25,1.61,1.61,0,0,1-.73-.75,2.9,2.9,0,0,1-.25-1.3,2.36,2.36,0,0,1,.57-1.73A2.14,2.14,0,0,1,47.08.94a2.66,2.66,0,0,1,1,.18,1.69,1.69,0,0,1,.7.56,1.66,1.66,0,0,1,.25,1h-.74A1.08,1.08,0,0,0,48.15,2a1,1,0,0,0-.43-.37,1.54,1.54,0,0,0-.63-.12,1.51,1.51,0,0,0-.77.18,1.11,1.11,0,0,0-.47.53,2.18,2.18,0,0,0-.16.91v.14a2.1,2.1,0,0,0,.16.9,1,1,0,0,0,.47.53,1.49,1.49,0,0,0,.77.17,1.64,1.64,0,0,0,.65-.12,1,1,0,0,0,.43-.36,1.08,1.08,0,0,0,.15-.59H49a1.66,1.66,0,0,1-.25,1,1.62,1.62,0,0,1-.7.56A2.67,2.67,0,0,1,47.07,5.53Z" transform="translate(0 -0.78)" style="fill:#f4b04e"/><path d="M53,5.53a2.41,2.41,0,0,1-1-.19,1.32,1.32,0,0,1-.64-.57,2.06,2.06,0,0,1-.22-1V1h.73v2.8a1.05,1.05,0,0,0,.29.82,1.1,1.1,0,0,0,.82.28,1.19,1.19,0,0,0,.84-.28,1.06,1.06,0,0,0,.3-.82V1h.72V3.79a2,2,0,0,1-.22,1,1.36,1.36,0,0,1-.64.57A2.51,2.51,0,0,1,53,5.53Z" transform="translate(0 -0.78)" style="fill:#f4b04e"/><path d="M58.22,5.45V1.64H56.75V1h3.67v.63H58.94V5.45Z" transform="translate(0 -0.78)" style="fill:#f4b04e"/><path d="M65.77,5.53a2.21,2.21,0,0,1-.35,0,1.42,1.42,0,0,1-.36-.14.73.73,0,0,1-.26-.29,1,1,0,0,1-.11-.48A1,1,0,0,1,64.85,4a1,1,0,0,1,.46-.35A2.46,2.46,0,0,1,66,3.46a7.89,7.89,0,0,1,.88,0V3.08a.7.7,0,0,0,0-.3.39.39,0,0,0-.2-.2,1.29,1.29,0,0,0-.84,0,.55.55,0,0,0-.22.16.43.43,0,0,0-.06.22v.1h-.64a.17.17,0,0,1,0-.07V2.92A.81.81,0,0,1,65,2.4a1.19,1.19,0,0,1,.48-.32A2.27,2.27,0,0,1,66.23,2,1.73,1.73,0,0,1,67,2.1a.91.91,0,0,1,.45.36,1,1,0,0,1,.15.56V4.74a.23.23,0,0,0,.06.18.24.24,0,0,0,.14,0H68v.45l-.2.07a1.12,1.12,0,0,1-.27,0,.62.62,0,0,1-.29-.06.49.49,0,0,1-.2-.18.69.69,0,0,1-.1-.25h0a1.17,1.17,0,0,1-.28.26,1.1,1.1,0,0,1-.38.17A1.41,1.41,0,0,1,65.77,5.53ZM66,5a1.06,1.06,0,0,0,.37-.06.75.75,0,0,0,.3-.18.66.66,0,0,0,.19-.27.77.77,0,0,0,.07-.34V3.89a6,6,0,0,0-.78,0,1.26,1.26,0,0,0-.52.19.45.45,0,0,0-.19.39.41.41,0,0,0,.07.25.42.42,0,0,0,.19.15A.94.94,0,0,0,66,5Z" transform="translate(0 -0.78)" style="fill:#f4b04e"/><path d="M69.75,5.45V2.05h.56l.06.48h0a1.42,1.42,0,0,1,.29-.31A1.33,1.33,0,0,1,71.08,2,1.23,1.23,0,0,1,71.52,2a1.41,1.41,0,0,1,.57.11.82.82,0,0,1,.39.37,1.44,1.44,0,0,1,.14.68V5.45h-.68V3.23a1,1,0,0,0,0-.32.55.55,0,0,0-.14-.21.51.51,0,0,0-.22-.11,1.12,1.12,0,0,0-.27,0,.88.88,0,0,0-.42.11.87.87,0,0,0-.31.32.88.88,0,0,0-.11.47v2Z" transform="translate(0 -0.78)" style="fill:#f4b04e"/><path d="M75.92,5.53a1.38,1.38,0,0,1-.72-.19,1.25,1.25,0,0,1-.47-.58,2.73,2.73,0,0,1-.16-1,2.45,2.45,0,0,1,.17-1,1.21,1.21,0,0,1,.46-.57A1.23,1.23,0,0,1,75.89,2a1.86,1.86,0,0,1,.42.05,1.19,1.19,0,0,1,.34.16,1.16,1.16,0,0,1,.26.28h0V.78h.68V5.45h-.55L77,5h0a1,1,0,0,1-.45.41A1.33,1.33,0,0,1,75.92,5.53Zm.19-.59a.78.78,0,0,0,.48-.13.81.81,0,0,0,.27-.39A1.85,1.85,0,0,0,77,3.8V3.71a2.65,2.65,0,0,0,0-.53,1,1,0,0,0-.17-.36.66.66,0,0,0-.27-.2,1,1,0,0,0-.35-.07.85.85,0,0,0-.48.12.71.71,0,0,0-.28.37,2.37,2.37,0,0,0-.08.66v.11a1.91,1.91,0,0,0,.09.65.71.71,0,0,0,.27.37A.85.85,0,0,0,76.11,4.94Z" transform="translate(0 -0.78)" style="fill:#f4b04e"/><path d="M84.13,5.53a3.1,3.1,0,0,1-.69-.08,1.8,1.8,0,0,1-.6-.24,1.27,1.27,0,0,1-.41-.42,1.28,1.28,0,0,1-.14-.61V4.05H83a.11.11,0,0,1,0,0v.07a.66.66,0,0,0,.14.41,1,1,0,0,0,.4.25,2,2,0,0,0,.58.08,2,2,0,0,0,.35,0,1.29,1.29,0,0,0,.31-.07A.9.9,0,0,0,85,4.7a.46.46,0,0,0,.16-.18.48.48,0,0,0,.06-.24.49.49,0,0,0-.12-.34.88.88,0,0,0-.32-.23,4.09,4.09,0,0,0-.46-.16c-.17,0-.34-.1-.53-.14l-.52-.17A2,2,0,0,1,82.84,3a1,1,0,0,1-.32-.35,1,1,0,0,1-.12-.51,1.11,1.11,0,0,1,.12-.52,1.15,1.15,0,0,1,.35-.38A2,2,0,0,1,83.43,1a3.29,3.29,0,0,1,.73-.07,2.84,2.84,0,0,1,.66.07,1.66,1.66,0,0,1,.54.23,1.09,1.09,0,0,1,.37.4,1.08,1.08,0,0,1,.13.56v.08h-.72V2.2A.51.51,0,0,0,85,1.85a.75.75,0,0,0-.34-.22,1.6,1.6,0,0,0-.51-.08,2,2,0,0,0-.58.07.89.89,0,0,0-.35.19.38.38,0,0,0-.12.28.41.41,0,0,0,.12.31,1,1,0,0,0,.33.21l.46.15.52.14.53.17a1.61,1.61,0,0,1,.45.24,1,1,0,0,1,.33.35,1,1,0,0,1,.12.52,1.2,1.2,0,0,1-.24.77,1.26,1.26,0,0,1-.65.44A3.13,3.13,0,0,1,84.13,5.53Z" transform="translate(0 -0.78)" style="fill:#f4b04e"/><path d="M87.63,5.45,89.37,1h.92L92,5.45h-.78l-.39-1h-2.1l-.4,1ZM89,3.81h1.63l-.5-1.3a1.16,1.16,0,0,0-.06-.16c0-.07,0-.15-.08-.23s0-.16-.08-.25,0-.16-.08-.23h0l-.1.29c0,.11-.08.22-.11.33l-.1.25Z" transform="translate(0 -0.78)" style="fill:#f4b04e"/><path d="M94.88,5.45,93.24,1H94l1.1,3.1a1.71,1.71,0,0,1,.07.18l.06.2a1.38,1.38,0,0,0,.06.16h0a1.38,1.38,0,0,0,.06-.16l.06-.19a1.34,1.34,0,0,0,.07-.18L96.62,1h.75L95.73,5.45Z" transform="translate(0 -0.78)" style="fill:#f4b04e"/><path d="M99.25,5.45V1h3.44v.63H100V2.87h2.43v.62H100V4.83h2.75v.62Z" transform="translate(0 -0.78)" style="fill:#f4b04e"/></g></g></svg>