<svg xmlns="http://www.w3.org/2000/svg" viewBox="0 0 110.81 36.08"><g id="Layer_2" data-name="Layer 2"><g id="OBJECTS"><path d="M72.07,34.54a37.76,37.76,0,0,1-5.56-2c-5.41-2.51-9-5.78-11.07-9.33C53.35,26.69,49.77,30,44.36,32.5a38.94,38.94,0,0,1-5.55,2.07,36.5,36.5,0,0,1-20.56.07A26,26,0,0,1,1.91,20.29,33.22,33.22,0,0,1,.12,15.47a2.33,2.33,0,0,1,4.19-2c3.33,4.08,6.1,5.47,8.55,5.25S18,16.59,20.57,14.1c.62-.59,1.59-1.55,2.57-2.54,1.93-1.93,4.05-4,6.26-5.9,7.15-6,14.19-6.75,19.49-4.44a14.65,14.65,0,0,1,6.55,5.61A14.57,14.57,0,0,1,62,1.22c5.29-2.28,12.33-1.6,19.48,4.44,2.21,1.86,4.29,3.94,6.26,5.9,1,1,1.93,1.93,2.58,2.54,2.6,2.49,5.17,4.44,7.71,4.66s5.22-1.17,8.55-5.25a2.33,2.33,0,0,1,4.14,2,33.22,33.22,0,0,1-1.79,4.82A26,26,0,0,1,92.59,34.64,36.56,36.56,0,0,1,72,34.56" style="fill:#1f2944"/></g></g></svg>