<svg xmlns="http://www.w3.org/2000/svg" viewBox="0 0 48.66 35.68"><g id="Layer_2" data-name="Layer 2"><g id="OBJECTS"><path d="M31.64,24a17.86,17.86,0,0,1-2.44-.9A10.62,10.62,0,0,1,24.34,19a10.58,10.58,0,0,1-4.86,4.1A16.67,16.67,0,0,1,17,24a16,16,0,0,1-9,0,11.42,11.42,0,0,1-7.17-6.3,14.18,14.18,0,0,1-.79-2.12,1,1,0,0,1,.64-1.29,1,1,0,0,1,1.2.43c1.46,1.8,2.68,2.41,3.76,2.31A6.47,6.47,0,0,0,9,15c.28-.26.7-.68,1.13-1.11.85-.85,1.78-1.78,2.75-2.59,3.14-2.66,6.23-3,8.56-1.95a6.42,6.42,0,0,1,2.87,2.46,6.39,6.39,0,0,1,2.88-2.46c2.33-1,5.42-.71,8.56,1.95,1,.81,1.88,1.73,2.75,2.59.42.42.84.85,1.13,1.11a6.35,6.35,0,0,0,3.39,2c1.11.1,2.29-.51,3.75-2.31a1,1,0,0,1,1.82.87,14.18,14.18,0,0,1-.79,2.12A11.44,11.44,0,0,1,40.66,24a16.12,16.12,0,0,1-9,0" style="fill:#2d3962"/><path d="M4.22,3.38A.6.6,0,0,1,3.67,3L2.73.83A.6.6,0,0,1,3.83.36l.94,2.19a.6.6,0,0,1-.32.79A.59.59,0,0,1,4.22,3.38Z" style="fill:#f4b04e"/><path d="M15.26,29.19a.6.6,0,0,1-.55-.36l-1.84-4.3a.6.6,0,0,1,1.1-.47l1.84,4.3a.59.59,0,0,1-.31.78A.52.52,0,0,1,15.26,29.19Zm-3.68-8.6a.61.61,0,0,1-.55-.36l-1.84-4.3a.6.6,0,0,1,.32-.79.59.59,0,0,1,.78.32l1.84,4.3a.6.6,0,0,1-.55.83ZM7.9,12a.61.61,0,0,1-.55-.37L5.51,7.32a.6.6,0,1,1,1.1-.46l1.84,4.3A.6.6,0,0,1,7.9,12Z" style="fill:#f4b04e"/><path d="M18,35.68a.6.6,0,0,1-.55-.36l-.94-2.19a.6.6,0,0,1,1.1-.47l.94,2.19a.6.6,0,0,1-.32.79A.59.59,0,0,1,18,35.68Z" style="fill:#f4b04e"/></g></g></svg>