<svg xmlns="http://www.w3.org/2000/svg" viewBox="0 0 23.5 38.31"><g id="Layer_2" data-name="Layer 2"><g id="OBJECTS"><g id="Liquid_Soap" data-name="Liquid Soap"><path d="M14.08,10.33H9.42A1.1,1.1,0,0,1,8.25,9.25V4.39A1.17,1.17,0,0,1,9.42,3.23h4.66a1.16,1.16,0,0,1,1.17,1.16V9.25A1.1,1.1,0,0,1,14.08,10.33Z" style="fill:#f4b04e"/><path d="M20.4,2.84A17.5,17.5,0,0,0,13.6.25,18.77,18.77,0,0,0,11.18,0,8.48,8.48,0,0,0,7.62.58a2.5,2.5,0,0,0-1.8,2.25A3,3,0,0,0,9,5.59H19.74a1,1,0,0,0,1.07-.92V3.56A.87.87,0,0,0,20.4,2.84Z" style="fill:#2d3962"/><path d="M18.75,38.31h-14a1.15,1.15,0,0,1-1.08-.73L2.51,34.69C.63,30.08,0,28.53,0,25.49,0,20.32,2.45,16,6.56,13.9a11.3,11.3,0,0,1,5.19-1.23,11.3,11.3,0,0,1,5.19,1.23C21.05,16,23.5,20.32,23.5,25.49c0,3.06-.73,4.86-2.5,9.18-.34.85-.74,1.81-1.17,2.91a1.17,1.17,0,0,1-1.08.73Z" style="fill:#2d3962"/><rect x="6.13" y="7.87" width="11.24" height="6.53" rx="1.29" style="fill:#e0a04b"/><rect x="6.9" y="21.36" width="9.7" height="9.22" rx="1.22" style="fill:#f4b04e"/></g></g></g></svg>