<svg xmlns="http://www.w3.org/2000/svg" xmlns:xlink="http://www.w3.org/1999/xlink" viewBox="0 0 37.86 41.84"><defs><clipPath id="clip-path"><path d="M23.46,5.26A63.36,63.36,0,0,1,19,37.05a2.71,2.71,0,0,0,1.24,3.44l2,1a2.69,2.69,0,0,0,3.74-1.33A70.94,70.94,0,0,0,31,4.34a3.81,3.81,0,0,0-4.61-3.27h0A3.82,3.82,0,0,0,23.46,5.26Z" style="fill:none"/></clipPath></defs><g id="Layer_2" data-name="Layer 2"><g id="OBJECTS"><path d="M28.16,3.42.11,13.6h0a7.82,7.82,0,0,0,2.52,7.13l.09.09,14.55-5.28a5.15,5.15,0,0,0,2.89-2.61h0a5.18,5.18,0,0,1,2.9-2.62l11-4A5.73,5.73,0,0,0,37.84.44h0L35.7,0l-.63,1.26A4.69,4.69,0,0,1,30,3.77Z" style="fill:#f4b04e"/><path d="M.86,18.45a7.79,7.79,0,0,0,1.77,2.28l.09.09,14.55-5.28a5.15,5.15,0,0,0,2.89-2.61h0a5.14,5.14,0,0,1,2.07-2.23L.86,18.45Z" style="fill:#e0a04b"/><g style="clip-path:url(#clip-path)"><path d="M23.46,5.26A63.36,63.36,0,0,1,19,37.05a2.71,2.71,0,0,0,1.24,3.44l2,1a2.69,2.69,0,0,0,3.74-1.33A70.94,70.94,0,0,0,31,4.34a3.81,3.81,0,0,0-4.61-3.27h0A3.82,3.82,0,0,0,23.46,5.26Z" style="fill:#2d3962"/><rect x="20.75" y="5.35" width="14.46" height="0.89" transform="translate(0.17 12.36) rotate(-24.99)" style="fill:#e5e5e5"/><rect x="20.45" y="11.61" width="14.46" height="0.89" transform="translate(-2.5 12.83) rotate(-25)" style="fill:#e5e5e5"/><rect x="20.45" y="18.12" width="14.46" height="0.89" transform="translate(-5.25 13.44) rotate(-25)" style="fill:#e5e5e5"/><rect x="20.15" y="24.42" width="14.46" height="0.89" transform="translate(-7.94 13.9) rotate(-25)" style="fill:#e5e5e5"/><rect x="18.81" y="31.13" width="14.46" height="0.89" transform="translate(-10.9 13.96) rotate(-25)" style="fill:#e5e5e5"/></g><path d="M23.91,38.23a1.37,1.37,0,1,1-1.37-1.37A1.37,1.37,0,0,1,23.91,38.23Z" style="fill:#e5e5e5"/></g></g></svg>