<svg xmlns="http://www.w3.org/2000/svg" viewBox="0 0 39.71 42.59"><g id="Layer_2" data-name="Layer 2"><g id="OBJECTS"><rect x="24.68" y="5.09" width="16" height="3.9" transform="translate(4.6 25.17) rotate(-45)" style="fill:#2d3962"/><path d="M16.89,33.63a.63.63,0,0,1-.42-.17.61.61,0,0,1,0-.85l2.84-2.84a.6.6,0,0,1,.84,0,.61.61,0,0,1,0,.85l-2.84,2.84A.61.61,0,0,1,16.89,33.63Z" style="fill:#f4b04e"/><path d="M9,34.31a.63.63,0,0,1-.43-.17.61.61,0,0,1,0-.85l2.84-2.83a.6.6,0,0,1,.85.84L9.38,34.14A.63.63,0,0,1,9,34.31Z" style="fill:#f4b04e"/><path d="M8.87,25.35a.58.58,0,0,1-.42-.17.6.6,0,0,1,0-.84l2.84-2.84a.59.59,0,0,1,.84.84L9.29,25.18A.57.57,0,0,1,8.87,25.35Z" style="fill:#f4b04e"/><path d="M.6,26.12A.63.63,0,0,1,.17,26a.61.61,0,0,1,0-.85L3,22.27a.6.6,0,1,1,.85.84L1,26A.63.63,0,0,1,.6,26.12Z" style="fill:#f4b04e"/><path d="M1.11,35.42a.61.61,0,0,1-.42-.17.59.59,0,0,1,0-.85l2.83-2.83a.6.6,0,1,1,.85.84L1.53,35.25A.63.63,0,0,1,1.11,35.42Z" style="fill:#f4b04e"/><path d="M7.34,42.59a.6.6,0,0,1-.43-1l2.84-2.84a.6.6,0,0,1,.85.85L7.76,42.41A.59.59,0,0,1,7.34,42.59Z" style="fill:#f4b04e"/><path d="M24.89,11h3.67a1.85,1.85,0,0,1,1.85,1.85v1.67a0,0,0,0,1,0,0H23a0,0,0,0,1,0,0V12.89A1.85,1.85,0,0,1,24.89,11Z" transform="translate(16.88 -15.15) rotate(45)" style="fill:#f4b04e"/><path d="M25.68,28,10.91,13.22,14.86,10a5.78,5.78,0,0,1,7.84.3l5.9,5.91A5.77,5.77,0,0,1,29,24Z" style="fill:#2d3962"/><path d="M23.45,29.6,9.1,15.24a2.18,2.18,0,0,1,0-3.1h0a2.2,2.2,0,0,1,3.1,0L26.55,26.5a2.18,2.18,0,0,1,0,3.1h0A2.2,2.2,0,0,1,23.45,29.6Z" style="fill:#f4b04e"/></g></g></svg>